<mxfile host="app.diagrams.net" agent="Mozilla/5.0 (Macintosh; Intel Mac OS X 10_15_7) AppleWebKit/537.36 (KHTML, like Gecko) Chrome/127.0.0.0 Safari/537.36 Edg/127.0.0.0" version="24.7.6">
  <diagram name="第 1 页" id="WsUR2UwywmgPgyZQOxDr">
    <mxGraphModel dx="1104" dy="400" grid="1" gridSize="10" guides="1" tooltips="1" connect="1" arrows="1" fold="1" page="0" pageScale="1" pageWidth="827" pageHeight="1169" math="0" shadow="0">
      <root>
        <mxCell id="0" />
        <mxCell id="1" parent="0" />
        <mxCell id="7N5z4RHBk_GmlSCYDIpB-31" value="" style="rounded=0;whiteSpace=wrap;html=1;fillColor=#f5f5f5;fontColor=#333333;strokeColor=none;" vertex="1" parent="1">
          <mxGeometry x="140" y="1098.7" width="60" height="90" as="geometry" />
        </mxCell>
        <mxCell id="7N5z4RHBk_GmlSCYDIpB-29" value="" style="rounded=0;whiteSpace=wrap;html=1;fillColor=#f5f5f5;fontColor=#333333;strokeColor=none;" vertex="1" parent="1">
          <mxGeometry x="140" y="773.4000000000001" width="190" height="100" as="geometry" />
        </mxCell>
        <mxCell id="7N5z4RHBk_GmlSCYDIpB-39" style="edgeStyle=orthogonalEdgeStyle;rounded=0;orthogonalLoop=1;jettySize=auto;html=1;entryX=0;entryY=0.5;entryDx=0;entryDy=0;" edge="1" parent="1" source="7N5z4RHBk_GmlSCYDIpB-7" target="7N5z4RHBk_GmlSCYDIpB-31">
          <mxGeometry relative="1" as="geometry" />
        </mxCell>
        <mxCell id="7N5z4RHBk_GmlSCYDIpB-7" value="独立站" style="verticalLabelPosition=bottom;aspect=fixed;html=1;shape=mxgraph.salesforce.web;" vertex="1" parent="1">
          <mxGeometry y="1120" width="60" height="47.400000000000006" as="geometry" />
        </mxCell>
        <mxCell id="7N5z4RHBk_GmlSCYDIpB-37" style="edgeStyle=orthogonalEdgeStyle;rounded=0;orthogonalLoop=1;jettySize=auto;html=1;entryX=0;entryY=0.5;entryDx=0;entryDy=0;curved=1;" edge="1" parent="1" source="7N5z4RHBk_GmlSCYDIpB-9" target="7N5z4RHBk_GmlSCYDIpB-29">
          <mxGeometry relative="1" as="geometry" />
        </mxCell>
        <mxCell id="7N5z4RHBk_GmlSCYDIpB-9" value="Customer.io" style="verticalLabelPosition=bottom;aspect=fixed;html=1;shape=mxgraph.salesforce.web;" vertex="1" parent="1">
          <mxGeometry y="640" width="60" height="47.400000000000006" as="geometry" />
        </mxCell>
        <mxCell id="7N5z4RHBk_GmlSCYDIpB-32" style="edgeStyle=orthogonalEdgeStyle;rounded=0;orthogonalLoop=1;jettySize=auto;html=1;entryX=0;entryY=0.5;entryDx=0;entryDy=0;curved=1;" edge="1" parent="1" source="7N5z4RHBk_GmlSCYDIpB-10" target="7N5z4RHBk_GmlSCYDIpB-29">
          <mxGeometry relative="1" as="geometry" />
        </mxCell>
        <mxCell id="7N5z4RHBk_GmlSCYDIpB-10" value="Instagram MA" style="verticalLabelPosition=bottom;aspect=fixed;html=1;shape=mxgraph.salesforce.web;" vertex="1" parent="1">
          <mxGeometry x="-40" y="720" width="60" height="47.400000000000006" as="geometry" />
        </mxCell>
        <mxCell id="7N5z4RHBk_GmlSCYDIpB-36" style="edgeStyle=orthogonalEdgeStyle;rounded=0;orthogonalLoop=1;jettySize=auto;html=1;entryX=0;entryY=0.5;entryDx=0;entryDy=0;" edge="1" parent="1" source="7N5z4RHBk_GmlSCYDIpB-11" target="7N5z4RHBk_GmlSCYDIpB-29">
          <mxGeometry relative="1" as="geometry" />
        </mxCell>
        <mxCell id="7N5z4RHBk_GmlSCYDIpB-11" value="&amp;nbsp;Facebook Marketing" style="verticalLabelPosition=bottom;aspect=fixed;html=1;shape=mxgraph.salesforce.web;" vertex="1" parent="1">
          <mxGeometry x="-40" y="800" width="60" height="47.400000000000006" as="geometry" />
        </mxCell>
        <mxCell id="7N5z4RHBk_GmlSCYDIpB-34" style="edgeStyle=orthogonalEdgeStyle;rounded=0;orthogonalLoop=1;jettySize=auto;html=1;entryX=0;entryY=0.5;entryDx=0;entryDy=0;curved=1;" edge="1" parent="1" source="7N5z4RHBk_GmlSCYDIpB-12" target="7N5z4RHBk_GmlSCYDIpB-29">
          <mxGeometry relative="1" as="geometry" />
        </mxCell>
        <mxCell id="7N5z4RHBk_GmlSCYDIpB-12" value="Google ads" style="verticalLabelPosition=bottom;aspect=fixed;html=1;shape=mxgraph.salesforce.web;" vertex="1" parent="1">
          <mxGeometry x="-40" y="880" width="60" height="47.400000000000006" as="geometry" />
        </mxCell>
        <mxCell id="7N5z4RHBk_GmlSCYDIpB-35" style="edgeStyle=orthogonalEdgeStyle;rounded=0;orthogonalLoop=1;jettySize=auto;html=1;entryX=0;entryY=0.5;entryDx=0;entryDy=0;curved=1;" edge="1" parent="1" source="7N5z4RHBk_GmlSCYDIpB-13" target="7N5z4RHBk_GmlSCYDIpB-29">
          <mxGeometry relative="1" as="geometry" />
        </mxCell>
        <mxCell id="7N5z4RHBk_GmlSCYDIpB-13" value="Amazon SP- API" style="verticalLabelPosition=bottom;aspect=fixed;html=1;shape=mxgraph.salesforce.web;" vertex="1" parent="1">
          <mxGeometry y="960" width="60" height="47.400000000000006" as="geometry" />
        </mxCell>
        <mxCell id="7N5z4RHBk_GmlSCYDIpB-14" value="Amazon Ads" style="verticalLabelPosition=bottom;aspect=fixed;html=1;shape=mxgraph.salesforce.web;" vertex="1" parent="1">
          <mxGeometry y="1040" width="60" height="47.400000000000006" as="geometry" />
        </mxCell>
        <mxCell id="7N5z4RHBk_GmlSCYDIpB-22" value="AMC Convertor" style="sketch=0;outlineConnect=0;fontColor=#232F3E;gradientColor=none;strokeColor=#ffffff;fillColor=#232F3E;dashed=0;verticalLabelPosition=middle;verticalAlign=bottom;align=center;html=1;whiteSpace=wrap;fontSize=10;fontStyle=1;spacing=3;shape=mxgraph.aws4.productIcon;prIcon=mxgraph.aws4.lambda;" vertex="1" parent="1">
          <mxGeometry x="150" y="1108.7" width="40" height="70" as="geometry" />
        </mxCell>
        <mxCell id="7N5z4RHBk_GmlSCYDIpB-25" value="ECS Task&lt;div&gt;&lt;br&gt;&lt;/div&gt;" style="sketch=0;outlineConnect=0;fontColor=#232F3E;gradientColor=none;strokeColor=#ffffff;fillColor=#232F3E;dashed=0;verticalLabelPosition=middle;verticalAlign=bottom;align=center;html=1;whiteSpace=wrap;fontSize=10;fontStyle=1;spacing=3;shape=mxgraph.aws4.productIcon;prIcon=mxgraph.aws4.ecs;" vertex="1" parent="1">
          <mxGeometry x="150" y="783.4000000000001" width="40" height="80" as="geometry" />
        </mxCell>
        <mxCell id="7N5z4RHBk_GmlSCYDIpB-26" value="" style="shape=image;verticalLabelPosition=bottom;labelBackgroundColor=default;verticalAlign=top;aspect=fixed;imageAspect=0;image=data:image/png,iVBORw0KGgoAAAANSUhEUgAAAugAAAHQCAYAAADzm5/NAAAEDmlDQ1BrQ0dDb2xvclNwYWNlR2VuZXJpY1JHQgAAOI2NVV1oHFUUPpu5syskzoPUpqaSDv41lLRsUtGE2uj+ZbNt3CyTbLRBkMns3Z1pJjPj/KRpKT4UQRDBqOCT4P9bwSchaqvtiy2itFCiBIMo+ND6R6HSFwnruTOzu5O4a73L3PnmnO9+595z7t4LkLgsW5beJQIsGq4t5dPis8fmxMQ6dMF90A190C0rjpUqlSYBG+PCv9rt7yDG3tf2t/f/Z+uuUEcBiN2F2Kw4yiLiZQD+FcWyXYAEQfvICddi+AnEO2ycIOISw7UAVxieD/Cyz5mRMohfRSwoqoz+xNuIB+cj9loEB3Pw2448NaitKSLLRck2q5pOI9O9g/t/tkXda8Tbg0+PszB9FN8DuPaXKnKW4YcQn1Xk3HSIry5ps8UQ/2W5aQnxIwBdu7yFcgrxPsRjVXu8HOh0qao30cArp9SZZxDfg3h1wTzKxu5E/LUxX5wKdX5SnAzmDx4A4OIqLbB69yMesE1pKojLjVdoNsfyiPi45hZmAn3uLWdpOtfQOaVmikEs7ovj8hFWpz7EV6mel0L9Xy23FMYlPYZenAx0yDB1/PX6dledmQjikjkXCxqMJS9WtfFCyH9XtSekEF+2dH+P4tzITduTygGfv58a5VCTH5PtXD7EFZiNyUDBhHnsFTBgE0SQIA9pfFtgo6cKGuhooeilaKH41eDs38Ip+f4At1Rq/sjr6NEwQqb/I/DQqsLvaFUjvAx+eWirddAJZnAj1DFJL0mSg/gcIpPkMBkhoyCSJ8lTZIxk0TpKDjXHliJzZPO50dR5ASNSnzeLvIvod0HG/mdkmOC0z8VKnzcQ2M/Yz2vKldduXjp9bleLu0ZWn7vWc+l0JGcaai10yNrUnXLP/8Jf59ewX+c3Wgz+B34Df+vbVrc16zTMVgp9um9bxEfzPU5kPqUtVWxhs6OiWTVW+gIfywB9uXi7CGcGW/zk98k/kmvJ95IfJn/j3uQ+4c5zn3Kfcd+AyF3gLnJfcl9xH3OfR2rUee80a+6vo7EK5mmXUdyfQlrYLTwoZIU9wsPCZEtP6BWGhAlhL3p2N6sTjRdduwbHsG9kq32sgBepc+xurLPW4T9URpYGJ3ym4+8zA05u44QjST8ZIoVtu3qE7fWmdn5LPdqvgcZz8Ww8BWJ8X3w0PhQ/wnCDGd+LvlHs8dRy6bLLDuKMaZ20tZrqisPJ5ONiCq8yKhYM5cCgKOu66Lsc0aYOtZdo5QCwezI4wm9J/v0X23mlZXOfBjj8Jzv3WrY5D+CsA9D7aMs2gGfjve8ArD6mePZSeCfEYt8CONWDw8FXTxrPqx/r9Vt4biXeANh8vV7/+/16ffMD1N8AuKD/A/8leAvFY9bLAAAAbGVYSWZNTQAqAAAACAAEARoABQAAAAEAAAA+ARsABQAAAAEAAABGASgAAwAAAAEAAgAAh2kABAAAAAEAAABOAAAAAAAAAJAAAAABAAAAkAAAAAEAAqACAAQAAAABAAAC6KADAAQAAAABAAAB0AAAAABByoIMAAAACXBIWXMAABYlAAAWJQFJUiTwAABAAElEQVR4Ae3dB5wURdrA4RdElCgSBBMiihIMoCRBkagSJC9iQAmiCGI8z6znnXre6XenoojkDIIgQSQroJhQUEBBCSoYCBKUJCDwdeENzg4zOz3TVT3Vvf++397OTHdXv/VUL75dU12d55CzCAsCCCCAAAIIIIAAAghYIZDXiigIAgEEEEAAAQQQQAABBA4LkKBzIiCAAAIIIIAAAgggYJEACbpFjUEoCCCAAAIIIIAAAgiQoHMOIIAAAggggAACCCBgkQAJukWNQSgIIIAAAggggAACCJCgcw4ggAACCCCAAAIIIGCRAAm6RY1BKAgggAACCCCAAAIIkKBzDiCAAAIIIIAAAgggYJEACbpFjUEoCCCAAAIIIIAAAgiQoHMOIIAAAggggAACCCBgkQAJukWNQSgIIIAAAggggAACCJCgcw4ggAACCCCAAAIIIGCRAAm6RY1BKAgggAACCCCAAAIIkKBzDiCAAAIIIIAAAgggYJEACbpFjUEoCCCAAAIIIIAAAgiQoHMOIIAAAggggAACCCBgkQAJukWNQSgIIIAAAggggAACCJCgcw4ggAACCCCAAAIIIGCRAAm6RY1BKAgggAACCCCAAAIIkKBzDiCAAAIIIIAAAgggYJEACbpFjUEoCCCAAAIIIIAAAgiQoHMOIIAAAggggAACCCBgkQAJukWNQSgIIIAAAggggAACCJCgcw4ggAACCCCAAAIIIGCRAAm6RY1BKAgggAACCCCAAAIIkKBzDiCAAAIIIIAAAgggYJEACbpFjUEoCCCAAAIIIIAAAgiQoHMOIIAAAggggAACCCBgkQAJukWNQSgIIIAAAggggAACCJCgcw4ggAACCCCAAAIIIGCRAAm6RY1BKAgggAACCCCAAAIIkKBzDiCAAAIIIIAAAgggYJEACbpFjUEoCCCAAAIIIIAAAgiQoHMOIIAAAggggAACCCBgkQAJukWNQSgIIIAAAggggAACCJCgcw4ggAACCCCAAAIIIGCRAAm6RY1BKAgggAACCCCAAAIIkKBzDiCAAAIIIIAAAgggYJEACbpFjUEoCCCAAAIIIIAAAgiQoHMOIIAAAggggAACCCBgkQAJukWNQSgIIIAAAggggAACCJCgcw4ggAACCCCAAAIIIGCRAAm6RY1BKAgggAACCCCAAAIIkKBzDiCAAAIIIIAAAgggYJEACbpFjUEoCCCAAAIIIIAAAgiQoHMOIIAAAggggAACCCBgkQAJukWNQSgIIIAAAggggAACCJCgcw4ggAACCCCAAAIIIGCRAAm6RY1BKAgggAACCCCAAAIIkKBzDiCAAAIIIIAAAgggYJEACbpFjUEoCCCAAAIIIIAAAgiQoHMOIIAAAggggAACCCBgkQAJukWNQSgIIIAAAggggAACCJCgcw4ggAACCCCAAAIIIGCRAAm6RY1BKAgggAACCCCAAAIIkKBzDiCAAAIIIIAAAgggYJEACbpFjUEoCCCAAAIIIIAAAgiQoHMOIIAAAggggAACCCBgkQAJukWNQSgIIIAAAggggAACCJCgcw4ggAACCCCAAAIIIGCRAAm6RY1BKAgggAACCCCAAAIIkKBzDiCAAAIIIIAAAgggYJEACbpFjUEoCCCAAAIIIIAAAgiQoHMOIIAAAggggAACCCBgkQAJukWNQSgIIIAAAggggAACCJCgcw4ggAACCCCAAAIIIGCRAAm6RY1BKAgggAACCCCAAAIIkKBzDiCAAAIIIIAAAgggYJEACbpFjUEoCCCAAAIIIIAAAgiQoHMOIIAAAggggAACCCBgkQAJukWNQSgIIIAAAggggAACCJCgcw4ggAACCCCAAAIIIGCRAAm6RY1BKAgggAACCCCAAAIIkKBzDiCAAAIIIIAAAgggYJEACbpFjUEoCCCAAAIIIIAAAgiQoHMOIIAAAggggAACCCBgkQAJukWNQSgIIIAAAggggAACCJCgcw4ggAACCCCAAAIIIGCRAAm6RY1BKAgggAACCCCAAAIIkKBzDiCAAAIIIIAAAgggYJEACbpFjUEoCCCAAAIIIIAAAgiQoHMOIIAAAggggAACCCBgkQAJukWNQSgIIIAAAggggAACCJCgcw4ggAACCCCAAAIIIGCRAAm6RY1BKAgggAACCCCAAAIIkKBzDiCAAAIIIIAAAgggYJEACbpFjUEoCCCAAAIIIIAAAgiQoHMOIIAAAggggAACCCBgkQAJukWNQSgIIIAAAggggAACCJCgcw4ggAACCCCAAAIIIGCRAAm6RY1BKAgggAACCCCAAAIIkKBzDiCAAAIIIIAAAgggYJEACbpFjUEoCCCAAAIIIIAAAgiQoHMOIIAAAggggAACCCBgkQAJukWNQSgIIIAAAggggAACCJCgcw4ggAACCCCAAAIIIGCRAAm6RY1BKAgggAACCCCAAAIIkKBzDiCAAAIIIIAAAgggYJEACbpFjUEoCCCAAAIIIIAAAgiQoHMOIIAAAggggAACCCBgkQAJukWNQSgIIIAAAggggAACCJCgcw4ggAACCCCAAAIIIGCRAAm6RY1BKAgggAACCCCAAAIIkKBzDiCAAAIIIIAAAgggYJEACbpFjUEoCCCAAAIIIIAAAgiQoHMOIIAAAggggAACCCBgkQAJukWNQSgIIIAAAggggAACCJCgcw4ggAACCCCAAAIIIGCRAAm6RY1BKAgggAACCCCAAAIIkKBzDiCAAAIIIIAAAgggYJEACbpFjUEoCCCAAAIIIIAAAgiQoHMOIIAAAggggAACCCBgkQAJukWNQSgIIIAAAggggAACCJCgcw4ggAACCCCAAAIIIGCRAAm6RY1BKAgggAACCCCAAAIIkKBzDiCAAAIIIIAAAgggYJEACbpFjUEoCCCAAAIIIIAAAgiQoHMOIIAAAggggAACCCBgkQAJukWNQSgIIIAAAggggAACCJCgcw4ggAACCCCAAAIIIGCRAAm6RY1BKAgggAACCCCAAAIIkKBzDiCAAAIIIIAAAgggYJEACbpFjUEoCCCAAAIIIIAAAgiQoHMOIIAAAggggAACCCBgkQAJukWNQSgIIIAAAggggAACCJCgcw4ggAACCCCAAAIIIGCRAAm6RY1BKAgggAACCCCAAAIIkKBzDiCAAAIIIIAAAgggYJEACbpFjUEoCCCAAAIIIIAAAgiQoHMOIIAAAggggAACCCBgkQAJukWNQSgIIIAAAggggAACCJCgcw4ggAACCCCAAAIIIGCRAAm6RY1BKAgggAACCCCAAAIIkKBzDiCAAAIIIIAAAgggYJEACbpFjUEoCCCAAAIIIIAAAgiQoHMOIIAAAggggAACCCBgkQAJukWNQSgIIIAAAggggAACCJCgcw4ggAACCCCAAAIIIGCRAAm6RY1BKAgggAACCCCAAAII5IMg3ALjx/5Rv0ULRdatzV7X3buyv499V7DQH5+ULf/nmhp1RbI6/vmeVwgggAACCCCAAAJ6BfIccha9RVJaJgQiifiEEX8cPVnyrSNGlcBHkncSdx2ilIEAAggggAACCIiQoAf0LMhEQu6GKpK0k7C70WIbBBBAAAEEEEDgaAES9KNNrP0kOin3o4dcB0TF8/8o5d99dJRGGQgggAACCCCAQPgFSNAtb+MgJuWJSEnWE8nwOQIIIIAAAggg8KcACfqfFla9Uom5Gk8elJ7yVPAiw2DoVU9FjW0RQAABBBBAILcIkKBb1tJhTszjUatedRL1eDJ8hgACCCCAAAK5VYAE3ZKW/2tvkZXLLAkmA2GQqGcAnUMigAACCCCAgJUCJOgZbpbcnpjH8pOox4rwHgEEEEAAAQRymwAJeoZaPLcNZUmVmUQ9VTG2RwABBBBAAIGwCJCg+9ySJOapgZOop+bF1ggggAACCCAQfAESdB/bkOEs6WGTpKfnxl4IIIAAAgggEEwBEnQf2o1ecz3IJOp6HCkFAQQQQAABBOwWIEE33D70musFJknX60lpCCCAAAIIIGCfAAm6wTbp2DycDxoySOa66E49RLI6ut6cDRFAAAEEEEAAgcAIkKAbaCo1pGVEPwMFU2Q2AXrTs3HwBgEEEEAAAQRCIkCCrrkhGdKiGTRJcSTpSYBYjQACCCCAAAKBE8gbuIgtDpjk3P/GUU9fVe4sCCCAAAIIIIBAWAToQdfUkiTnmiDTLKZgIZGx09Lcmd0QQAABBBBAAAGLBEjQNTRGkG8GVYnt7l0aECwpgptHLWkIwkAAAQQQQACBtAXypb0nOx4WsD05Vwl4ZClbXqRG3ci75LOgqJtdI8uihSLr1tqfzEduzmWGl0jL8RsBBBBAAAEEgiZAD7qHFrM1OVdJebtOyRNwD1U/Mu7b1qSdnnQvrcu+CCCAAAIIIJBJARL0NPVtSs5VQh7pHc9Uz3HkRk1106YtC0m6LS1BHAgggAACCCCQigAJeipa/9vWluTc1ikGbblhVl24cONoGic4uyCAAAIIIIBARgVI0FPkz3Ty6cfwlRRJEm5uQ686SXrC5mEFAggggAACCFgqQIKeQsNkMjkPUmIejzTTdvSkx2sVPkMAAQQQQAABGwVI0F22SqYSzKAn5rG8mXK0dThQrA/vEUAAAQQQQAABEnQX54CabjAyfZ+LzbVtEtakUiXpmZj9Jaye2k44CkIAAQQQQAABKwRI0F00g983hYat1zwRcSZ605nZJVFr8DkCCCCAAAII2CJAgp6kJfxOInNbL6/6dmLCCP8egMRNo0lOeFYjgAACCCCAQMYFSNBzaAI/k/Pc0mueiNtP69x2EZTInM8RQAABBBBAwE4BEvQc2qVl/RxWalxFwvgHJkm6xpOKohBAAAEEEEAgsAJ5Axu54cBVsujHQnL+p/K/+4ioMeJ+LDY98dSP+nIMBBBAAAEEEAiOAAl6nLbyqyeX5Pxo/KyO/iXp6uZfFgQQQAABBBBAwDYBEvQ4LeJH7yrJeRz4/32kkvQp80TUuHyTy+5dIuomVRYEEEAAAQQQQMAmARL0mNbwY2gLyXkMeoK36umfppN0NYMMCwIIIIAAAgggYJMACXpUa/gxtIXkPArcxUuVpJtcVC+6HxdlJutA2QgggAACCCAQLgESdB/bk+Q8PWzTN46qIU0MdUmvbdgLAQQQQAABBPQLkKD/z9R07znJefonrx83jjLUJf32YU8EEEAAAQQQ0CtAgv4/T5M3hqpx1GoKQZb0BVSSri5yTC3cMGpKlnIRQAABBBBAIFUBEnRHzPQYZNPjqFNt9KBury5yTCbpixYGVYa4EUAAAQQQQCBMAiToTmua7D03mVCG6UR0WxeVpJua2cXkeeC2fmyHAAIIIIAAAgjk+gTdZO85487N/IG162SmXFWqyfPBXNSUjAACCCCAAAJhEsjVCbrJG0MZd27uz8TkeHR60c21GyUjgAACCCCAgDuBXJ2gm0zGGHfu7gRMdyuTQ12YcjHdVmE/BBBAAAEEENAhkGsTdJNDGRh3ruPUTF6GqaEuTLmY3J4tEEAAAQQQQMCcQJ5DzmKueHtLblnfXGxT5pkrm5KzC3RsLqKmSNS9qIcjqaE0LN4EHn98gOzft99bITnsnZXVRKpdVCGHLYK96qeffpZFi1bK+nUbZNPmbVLixKJy2mmlpfJ55aRixXLBrlyGo1e2fV4cpzWKRx/rJgUKHKe1TApDAIHcKZArE3STY8+5MdT/PyQTF1vqHgKGKXlry1kzPpLrr/uLt0KS7H3llfVl5Jh/JNkqWKt//XWX/OuZ4TJl0lzZsGFjwuCLFi0qV155mfzt77fKSaVPTLgdK+ILLFm8Sq5o3DX+yjQ/XbnqTSlR4oQ092Y3BBBA4E+BXDnExeTYcx5I9OfJ5dcrU9Mu+hV/WI8zZPAU41V7++33ZevWHcaP49cBZs/8WKqenyX9+43OMTlX8fz6668yfvw0qXZhOxk0wLy1XwYcBwEEEEBAJNcl6Iw9D99pb2IsOk8W9XaeqKR5zpwF3gpxsff+/ftk+NBpLra0f5Nx4+bKddfeKzt2pHbBsc8ZQvTA/c/KU/8YYn8liRABBBBAwJVArkrQTQ5tUdr0nrs657RvpMaKm+hF52bR9Jtq0ED/enRHjnoz/UAt2XPJp1/Jnbc/6Sma5/87WCa8/o6nMnLVzocOaq/uwYO58pYu7Y4UiAACuawH3eTQFmZuyeyfk6le9MzWKrhHHzvav17t7775Tj7++MvgYjmRd7rhIfn999891+HO3k/Jt9/86LmcXFFAHv39U3ny5Ao5KokAAj4I5PPhGFYcwuTQFlVBm3vPI/N6R/cIx5v5RPVCly3/R3PVqBusWUxUL7qqX7x6eTkBlR2zuaQmuHDhUlm3bn1qO3ncemD/SVKzZmWPpWRm9yf+NlA2btyk5eB79+6Vhx/sK6PGeuuN1xKM7YUY6EHPnXOi2d7QxIdAMAVyTYKe23rPVWKZasKqktuIk/o9ot8fQ0dU0m7zBUjkT0/1oquYWTIrMGTgZN8DmDljvuzZc28gp7gbPHC8Vq9Zs+Y7F0gbpWzZ0lrLDV1hBnrQ8+alCz105wkVQiBDAvq/48tQRXI6rOnec9XbbMui6qqmHVSJqo7e5EjSrso07ejV0ERPd/S3Dl7jyw3779mzV2Y4ybLfy+7du2XUiBl+H9bz8d6d/5mo2HUvs2Z8qLvI8JVnoAedMejhO02oEQKZEgh9gq56kiO9wqaQTSSGqcYaScxN1lWVHUnUI8NmUo3T9Pa6bxbVcZFjus42lT9s2FuihllkYhk9yr9x77rqt2DBEl1FZSvng/eXZnvPmzgCBnrQGYMex5mPEEAgLYHQJ+iLFqbl4nqnTN8c6kdiHosRGf5iY4+6iZtFbb0YiW0XG96PHpG5JHnZshWyevX3NjC4juHHH/SMPY894I8/mik39jiBfm+gB50x6IE+IwgeAasEQp2gqwTSZI9ypltSPeY+k/VTx7YtSbfh24xMnxeZOv7yZWtlxYqvMnX4w8d95eXXM3r8VA++fXtqc567LX/Llu1uN8292xnoQWcMeu49nag5AroFQp2g+5G8ZuLmSdWjq5JzG4ZfKOPIsBfdJ2e65eke5sI4dHctMWDAJHcbGtzqjYmz5MCB4MxFXaDAcUY0jj3uWCPlhqpQAz3ojEEP1RlCZRDIqEBoE3Q/enZ1J4JuzgRVL103gLo5ntttbOpNNzHMxa1Dbt1uv/M0y6mT52S8+uopnOOdJ3IGZTmx+AlGQj3xRDPlGgmWQhFAAAEEjhIIbYLuR+95ZM7wo1QNfWD7kB2bknSdTWDDNxU662OirPHj30n5EfUm4lBljhyZuXHwqdap/NmnprqLq+3Ln2mmXFcHD8pGDHEJSksRJwK5UiCUCbofvefqbPFzekU/ZqPR8RdgQ5JuYhw6N4rmfHaMGDY15w18XLvow8Xyw/pg3CTZrJmZOVqvvOoSH8UDeiiGuAS04QgbgdwhELoE3c9eZhOJYKLTLkgP4LEhSc/E8KNEbRf2z9Wj5T/55DNrqnnQSbwG9Pf/YUnpAJxxRhmpUqVSOrsm3KfYicWkeQsziX/CgwZxBT3oQWw1YkYg1wiELkFftzZ8baduCA3aopL0TPY66x5+ZHq6zqC1b3S8/ftn/ubQ6HjU6/Hjp8uhgMx5d+dd18eG7+n9zTdnedo/1+xMD3quaWoqikAQBfIFMehEMavec7/GC/vVQ+tnnRK5pvu5mv3Ez28ZouNUw4/URYKuJYwXfrpsJr4+S1dR2srZtGmzzJz+kVzVrLa2Mk0V1Kbd5dLvlQtl8eLPPR/i1NNOkTvuusZzObmiAHrQc0UzB72SZ5/ZQn755Rdt1Xj+hUfk+k5XaiuPgswJhKoHXWdCZo7cfcl+DtdxH5X7LdXFkqoDS3gFpkx5T7Zs2WJlBYcMCcYwF4U3auyTcqIzNMXLkj9/fhk56p9iaupGL7FZuS896FY2C0FlF9D9TaDu8rJHyzudAqFJ0P1OBHUPoYjXqGG44AhDHeK1DZ/9ITBsqD03h8a2yfx5H8r2rb/Gfmzl+5Ili8mM2a/KOeeenVZ8JUqUkAlvvCjnnV8+rf3ZCQEEEEDALoHQJOhhSwT9vuAweVpmYgx9pobWmHS0rexNG7fJgnnvaw2r3uX6Zh85cOB3GTDQ3guIWLjy5U+RhR8Mkbvv6SYFCxaMXZ3w/bXXt5YPPxoutS+pknAbVsQRYIhLHBQ+sk0gT548WkPSXZ7W4Cgsm0AoEvQwJbOR1gnTBYca6pLJG0YjpvzWKzB40BStBdaoUU26dG2ptcyxo4MzJ3qk4g890lk+Xzpe7rv/FqlYqULk42y/zzjjdOnZ+0ZZ/PkEebHPvVKseNFs63mDAAIIIBBsgcDfJKqS80wksybnQA/jBUcmbxjV8Sfq183HOmL1q4wxmpPfq1tfLlc1rSOFCxeWnTt3aqnGunXr5b0Fn8ul9S7UUp5fhaiE+6/3dzr849cxc91xGIOe65o8iBXWPWZcd3lBNA1KzIHvQc9Ecm66ccNYp0wkuH7NtGP6fLCx/HnzlsiPP/6kLbS8efPKddddJfny5ZXL6+udeWXIYL09/doqTUEIIIAAAggkEAh0gp7JnmZTY5zDPBQkzHVL8PcV2o+HDNI7Q0r16lXlhBMKHfZq066hVreZM+fLjh27tZZJYQgggAACCJgUCHSCHsaeZtMPxFG9yp16iEyZl/2n4vki6sfkooa5sARfQCW7s2e9q7UirVo3OFJe8+Z15fgCxx957/XF3r17ZeTI6V6LYX8EEEAAAQR8Ewhsgp7J3nPVOkHrDY4k5mOde+bi9f7/u4+I+lGJu6lEPRPDXHz7S8pFBxo6ZJrs379PW43V8JZrrm1ypDw1zKVhQ72Pqh89Mng3ix4B4QUCCCCAQK4TCGSCrpLjMPaeq7PPRL1Ucp4oMY93xqtE3VSSHrQLm3g+uf2zMaPf0kqgZm+JDG+JFNy2faPISy2/V65YJV9++Y2WsigEAQQQQAAB0wKBTNBNDwMxjZ6ofFPJq0rOU11Ukh70myzpsU+11ZNvr5LcVV+vTr5hCltED2+J7KZ7mIsqt98rEyPF8xsBBBBAAAGrBQKXoGdqWkU/WtHEhYeXnvB0EvtkTibqmOyYrNcn8PKL4/QV5pR0zDH5pEPHxkeVaWKYy5tT5sr+ffuPOhYfIIAAAgggYJtA4BJ0E0NA0mmUICSaqgdc9YR7WXT3oq9b6yWazO2r2yFzNfF25GnT3vFWQMzetWodPbwlsonu2Vx27Ngh48e9HSme37ldgCeJ5vYzIBD11/3kT93lBQIxoEEGKkHP9I2hQWvjsuW9R9yuk/cyKCEcAkOHTpNdu3ZprUzLqNlbYgtu0eJSrbO5qPKHD3sz9jC8z60CPKgot7Z8oOqt+8FCussLFGbAgg1Ugm5L77lq4yD0BOt42mm8GV+8nON+jQs3NZ7fS92Dvu/IEXqTWzW8pX1Ww4QsJoa5LP70c/lh/aaEx2QFAggggAACNgjksyEINzHkht7zICT9btoqp238GiqiewiSjm8jcnKxfd2qVd/L50uWaw2zTt3qR83eEnuAdlmN5a1pc2M/Tvv9ITkkfV+ZIE89fVvaZbCjfwK7d++VZUvXyPLla2Tt2u9l86ZtsnXbL/LLLzvkuGPzS6HCBaRI4YJSqEghOeXkklK/QXWpVbuyuwANDHE55phj3B07zlYbNmyVTxZ9KRud3z//vF22bP1Ftjq/t277VX7dsVOOP/54KVyowB8/RQvJSaWKS81aVaRO3QukYMHj4pTIR2EQ0D0kJW/ePGFgcVWHXbv2yAfvLz/8d7XJ+bdj587dstv5bNfu3w7/VoUUdP6mCh3+Od75XVDKnFxCatc+X+pdXtXVMUxuFIgEPcw3hppsXN293yZjpWy7BQb0f0N7gG3bJp9KsWXLS51/NAtpHVoz8fWZViXoX3+1Xr779idtviVLniDVLj7XU3l79uyV9xZ87qmMyM6nn3GSVKxYLvI26e83p74nb8/9xPkP6xJZvTq1m1aee3aAFC5cRC6qfr5cdmk1ueuejkmPp3ODQykOm5n4+jyZMeN9+fCDJfLTTxvSDuWss8pLtWqVpPnVl0oL50fnMnvWx+Jc12pdal1SRYo6Fxk2Lp99tko2b9ymNbRSpU+UqlUrHC5TdXZ8u/ZH1+Xv36/3xvblX6yR2TOdNvWwnFvpDClbtrSHEszsumXLLzJ+/Nvy3vzF8sUXq+T773/wdKByZ54h5593jtRvVF3atWtwOJH3VGCKO+dxxiNp/tNLMQIXm9uaoKuH+uhcOjYX56pOX4nqiaE6kvSW9fXFpHrQTcwOExuhrZaxcQblfYWzrpbt27ZrC/dYp/fzq9VTpUiRgknL7HzjEzLtzTlJt0tlg0FD/ykq+bdhuffu552x8RO0hVKz5kUybcYLnspbvfp7uaTmtZ7KiOycldVc+r76QORtwt99Xhgn/V8dJxs2bEy4TSor1Dn248bE374sWbxKrmjcNZUik2674uupUrJksRy3W/LpV/LyS+Nk9uz3ZPfu3Tlum85KdYHSrNnlzsO/rtTSC9i+3f0y/5330wkl4T49e3aSJ568JeH6TK4of0YzUTeU61weePg2uffe6w4X+df7+siQQeN0Fu97WdH18f3gMQf86aefZeyY2TJt2gLt3/JGH0r9e1Kr9kXSosVlknVNI18uMK0fg25rcq4azvZxzjqGeSj/IC46L3SCWH+dMb8xYb7W5FzFVveyGq6Sc7Wt7ocWqTKHDZ2qfoVy0f2VuFekZPG8O/8zOa9SO/n7E320Jecq5tNOO8Vr6Cnvn1NdJ09+17kg6ClXNLlZJk+eZSQ5VwHv3LlDxo17U9q16S3VL75BxoyenXI9ond4+CG9FzGq7GHDJjrfiu2JPowVrwcPmqo9Oc+fP790797KivqFKYj3318mbVvfJxdUaSNPP9nXaHKu3NTTs99790N54P5npWKFlnLbLc/Id9+l/62Xm7awPkG36cbQWNAJI2I/8fZe94wpuWFMezxxExdOOr6JiBdrED4bNkx/MutmeEvEJjLMJfJex+8F8953ksGtOoqiDA8Cf7nnBWnrJJIbN27yUEr8Xc86q2z8FT5/OnrkTKnhJMo3d3lIlixe5uvRv/vmO7nj9r/LxRddn3airoZLXXpZba1xq9mg1Dcmti1DB0/WHlKzZg186W3VHrilBaoL3Qb1bpFWLXrKuws+zEiUKll//fVpUr1altxw3WOyfFlqQ/HcBm11gh7U3lu3+Ka3U73IXgxNfHvhx82WOr45iG4bv25sjT6mLa83OWMxP1i4SGs4+fMfK61a10upzAYNLklpezcbDxk0xc1mxrfRPcjw4MGDxmNO5QAHDx49inL79p3SqH4P55uM11MpKqVtK1RIkqCnOF7czcGj67pmzQ9Sp3YXufOOJ+VbJ1HO5LLu23WHE/WGl98iKq5Ulwcf7pLqLkm37//qa7LPogeHqbHnK1Z8lTTuVDfodcc12Xc5+s8h+3rexRVY6twsfmndrocvdJcvXxF3m0x8OHPGO86/ZV0O96jv2KF3yJrVCbrNvefqRFAJsM7eWhO9tMow3Rht9/frj9GPiwq/6pLqcV599Q05qDmRqVfvkpRnnWjf4einjaZal9jtX3tteuxHGXmfR/OkCnnz2vXPeuysEeomuXp1u8jSpV8Y9a5YqVzO5RuYxSVS12HDpju9fF1k1derc47B57XLlq2Q+pd1lr4vT0zpyDVrVpZal1RPaZ9kG6tx3q++ov/m82THTbT+pRfGJlqV9ueVK1c8cnPokUI0/70fKTfELx584GUnCe4sX61YZWUt1X8j/+hR7yiTJi7QFqNd/5JHVctLz29UMYF7aaK3dkS/1JN0dZOlicXrk03dxMSFhRsld9uMM5DEtmnf0N3Bo7Zq3qKuMztH4ahPvL/84fsfZd68Jd4LogTXAurm0xbNenmascTtwaqcf5bbTbVup24C/MvdT8uePfaNsVYV/e233+TxR/8rzZvd5UxX6X5WgkceuVmrkyrslb5jtJeZToHbt/4q06e/k86uOe7TuStjz3MESrLyow+/dMaYZ8nA/vovnpIcOq3VW7duk+43PyzXZD2o5R4LKxN0E0Mr0tJ2sZPuceguDpnWJipJd3PRo3rb1awtJm6yNHHxEYuR7rcFseVEv9fxwKfo8oLyes7sRbLBw9Rv8epZoEAB6dAh+fSK8fZt3LhuvI89fTZ0sB3DXDxVImbnQ5b10OX5X0+1uqGq1dV3yNYt/oz9v/DCs2NkzL+95eanAjNDx8cffipXOjetbt7sbnam2s7UiDVqVNOKuHnzzzJoQOb/BgcOelP7cJuiRYtKl64ttHrlpsLGjZvr3ATa25eLed2ub8997/A4ea8PxbMyQTd5c6PuJFF3Iqv7RtHoE0/1LKvkWyXq6kcls5Ef9V71mqtE3tTix1AR3ePPlYWJoUemjHWWO2SQ/hum6l2e/s1m7drrH+Yya+YCZ9YGveMGU20D3WPQDx2wawz6gQMHnBkQfpd2re+RTRs3p8qT1vannHJy8v00D91SB1ww/4Pkx7VoizVr1krD+t2dMfLu5uV+wMCMLi88P0IyPdvzsKH6h9q0bXdl/JZmDHp8l6hP//H3wXJ7jyeci6Z9UZ8G6+U333wrDRvcLIs/XZl24NYl6CpR1J30RnQqni9iIgHW2WvrRzKoEnX1o5LxyI96b8o94u/Hb1UPnYs6Z3LjsnXrDpk1a772qmdd0yTtMq9qVtt58ugJae8fb0d1N/6wodPirfLtM91j0HOa6s+3SkUdSNVPDfv47rv1UZ+afXlm+SQ3iKrDGxiDbrZWZkpX35I1aXSrq5tH1dMVL6x2ntZA1AOaxoyapbXMVAqbPt2Z0UnzN4Xq+L1ubx8/DMu+4YofZOY+7XrT3+XF54c4z8YK/pWMGvJydfOecvhhX2mQWpeg606wok1MjX/WPcxFdy9/tEGmXqs6mfKP1Eld3LHoERgxTH/SqsaQt2p1macAr7hC/8OFxoyx42ZRTzDRO1v2KO8lS1bIyOGp3ZQYXZ10Xp9zzhnp7JZr99m+fbt07HC/Mzf73qQGDzzQNek2qW7wwvOjUt1F2/YD+0/SVlakoDp1a0q5M/2fhz9y/KD+vv+vL8nUqd7m7bet7mqmom5dHhE1S1Cqi1UJuskEK9ITqnqodSfAqudZZy+6iV7+VE8M3dv7MbxFd8yqvNw6/nzUSP0JeqNGdTw3Ubss/cNcvl65ypmfOvV/PD1XxlABeSzreFq9eq2hmiYu9tyK5RKvZE1cATUV5I2dHou7LvrDxk1qSJUqlaI/8vx67dpvZNKkBZ7LSbWAdes2GhmW1P2WNqmGkuu3f/ml12XwwNdC6aBuGL+2w33yw/epDfGzKkE31XuuknPTvbc6e9FNXERk+qw37a/qZ+L88WPIUabbJvb46s55NX5O99JWwxjyho0ulmLFcn6UejpxD+zvbw9vdIy6x6DbNg96dF39el2pcrnkhzIwBj35Qe3eYv4774sa/5ts+esDXZJtkvL6Z54alPI+Xnd4+aXxXos4av+SJUuImnUq4WLZBXTCOH1coR4+9Pe/9fHxiP4f6ueftzjfIN+d0j1P1iToJnvPY5NDEz3U9KInPuEj314k3sL7GhPnjx9xe6+5/hIGDdT/lW+hQoXkiitreQ5Wja9u2Ej/Q4vefPNt2W/RQ1M8Q+XyAs47r3wuF0i/+i+9OEyWfJrzA3uaNb9Eypc/M/2DxNlT3bA6e+bHcdaY+UjduDxu7FvaC7/xptZi230g2iupscD16zdJL+eG0NzQsaCe7Nu717Ou9axI0FVyZaL3UynES7JM9YrqnEEkTL3osRdIrs/OFDY0df6kEEIoNt2zZ6+8Ne1t7XVp1Kiu5Mun55+b9hp64mMruHv3bhk1OnM3qsXGw/v0BUqUKMGj1dPnO5wo9er5z6QlPGhgXvRnnx2a9Li6NhgzZpbs3LlDV3GHy8mXL5/c1ivBzaFajxSewrp0flz27k1+70NYajztzTmipjB2s+j5L6abI+WwjcnkKlFyqHscuqqe7nqM1T8MOIdWMLMq3gWS7iOZ6D1XMSY6d3THb1N5o0bMMPKPZds0Hk6UyKXxFTW0P7RIHWvkiDcTHZLPAyRQrtzpAYrWzlBXrVojakxwTkvr1vW096IvWbxM1BA7P5YhBr4pbHJFPWcIXmE/wg/FMfr3mySfL1keirqkUok7e//T1Q3ZGU/QTSVXCiun5NDEMBd1TN316dRDlRrMxY+ZW5SM7gsjVWZO545aH9Zl9Cj9V4VqeEuOYzJTxFRfHze5wttsMPEOqf5DoR5D7/eie5rFvHkz/s+6McKTTy4jlSqdK2XLni4nnlhM8ufPf9SxKlRwOYOLpdMsFilSRNQ87udWqiAVzjlbypQpbeSC9Ci4mA+e/ddA2bLll5hPs7+938CMLv98OvkY+OxRpP5O3RS+fPmK1HdMskePni56z5lm8bCiumHyqSdfSSKqd7V6UJ76e1L/hqghWurbtmOPPfrfEL1HPbq0TZs2y333PH/0iphP8sW89/2tieRKVSJZcqiGkKgbO3XP/a27PipONXRGd7l+NLQfM7foviCKuOTG3vMVK76VZcv0/0friivrRVi1/e7gzKf+xsTp2sqLFDRwwCT5179vj7zldwYFzjn3bKl3eXVp2LCGnFvxDCcpLx03mk0bt8lkZwaQSZPfEfV0zHMruUzQ45bm/4cqUbi8QQ1p0eIyp75VcwzgrWkfyPRpC2Xe/I+MzN0dffBdu3bJU/8YIv95/q7oj7O9btu+vjzzz3Jabypf+N5Hh2dVqnZRhWzH0vmm3yv6bw6tUOEsqVMnlz44I43GefzRfk4vstmHxKkbduvXr+38fVU/fA9U8eJF4ka6fNlamTvnY5k//1N5d8GHcbfR/eG4cW/Krc4F3QUXnJWw6DzOE7wydk+xSq5MJZ6qBzRZkqWmRjTx5Ew3x07YIglWqKd86r6YSHAoLR+bMIgNzNT540fssXWx4f09dz0vI4ZP0B7K+IkvOv9I6n1EuAry3AqttD82vpjTK7tqzVTtBjkVeO/dz8vwYfrca9W6WN6cnrx3JqeYVq/+Xi6peW1Omxhb17NnJ+nVO0tOKn1iysdQ83jv3r1HSpYslnRf1Yt6ReOuSbcztUFFp4f8X8/enXZSN+H1d+SxR/sYfTrr8ccfL8u+fCPHYRtjx8xxbnx7QitTw0aXymvjk4+DT+egv/yyS6pUbKV9KN9TT98rt/RonTQk9S3dt2vdPblVFXZzt0e1JrLdb71WGtSvnjTOnDZQF8GJLphz2i+ybs2aH6R2Daf30dByxhmny+13Xi+dOzuJU4rLd99tkGefGSETJ85wnoC8L8W9U9u8SZPLZfRrTybcKWM96Co5zmRynlBEwwpVL1U/1futa1Hj0YOUpCe7ONLlQjn6BCZP0v+AiJNOKmUkOVe1bta8vvYH4Gzftl3emDBf2rS7XB8sJbkSOKdiBXn11UfkvPPLu9o+3kYFCx4n6sfmRT0N99G/9ZKbbmrqKcx27RuI+nnyH4Plhf8O8VRWop1/++036euMRX/okc6JNpGO1zaW5/49WOuTYt+e+56ob/QqVSqX8Ljprhg6eKr25LxgwYLSyWV7Vqhwmqgft8uxxx7rdlNX21WpfJY0ubKmq21NbfTPJ80NY3rokZ5y9z3pdy6ccUYZeemV++Se+653ngvwiHy1wtwzMmbPni9ffvmNVK4cf0akjA1W1DnjSexJ5DY5VAm0iZtFVTwmeuZVkm4q3lhDL+9VD7TpxVTvuYrb7fljuo5+lv/aa3Pk119/1X5IlUSbWq6/wVuCkyiuYcP87UFPFEdu+vy6G9rIwvcHe0rOg+ClLlinz+rnOTmPrusjj3aVcRNeEDW+1sQyZEjyb3fuuvtG7Yd+9pnh2stUBQ4bOll7ua3bXun4231hqL3SaRa41vn2YPJk/TNmqV7zeQuGeUrOo6tUvvwp8t7CwdKtu8ae1ugD/O/1008mvrjOSIJuMrlKNTk0dbOoslc93roXlaSnWkfdMSQrz48E1+S3L8nqF8b1w4eZmcHkps4tjHFVr15RTj3tFO3lqzGwP/64RXu5FBhfoEOHFvLCi/fEXxmiT9WNrbNm90up99Rt9Rs0uEgmTn7RmV6yqNtdXG+nvlUaMzrnb9duuPEq7X+L6pHv337jfiiImwrNnvWxrF+v/0bwXr2y3ByebRyB5/8zWrvD2WeXl1lzX5UqBp5/8My/ekmflx/XHnOkwJkz3kn435uMJOimkitV4VSTQ5O96GrMuLoY0b2oOtqapPsRlwnTSBulev5E9gvybzXmTt1cp3s548wzjPeItry6oe6wD5c3eJD+XjYjgQa80NZtrpKX+90f8FokD1/NFjFzTl859fSTkm+c5hbqgvXN6S+LGjeue5k2dUHSIu+8q1PSbVLd4F//HJ7qLjlu39/AE4OrV68q55zL1J45wketnDF9ftQ77y9Vz/n0GX0k0Q2g3o/gdLY6w7hMJumvj5sTN0zfE3STyVW6yaHJXvTIePS4+h4+tDFJV/5+JLimLvDSPX88NKMVuw4ZaGZIR7Or9E+FGAt2zbVNYj/S8n7cWP0zxGgJLESFVK5cUQYMejhENUpclX4DHnd142riEtytUWO2//H0Xe42TmGr995blHTrLl1biJoGU+cyefJs2bBhq5Yif/rpZ5n3tjMlmubl5lvaai4xvMXNnfOJbHO+kdG1qKlWJ099QYoV1//NUWyMKklXHQomlilT58Ut1vcE3WRylW5yaLIXXamr6RxNLKq+U+bZ05teo66JWmYv0+QFXrrnT/YIg/VOTeI0fryZZLRtVkPjGOorzdNPd3/DlduAfvppg6ivw/1YdM+jFYRHZqu5hwcMfNQP3sTHOHQw8TqNa3rf2dnYjdLxwlQzVzRr3ijeqrQ/U1Muuvl7uL339WkfI96OahaNf2sai/5Sn/HxDuHpMzWNX+s29T2VkWxn3RPt6S4vWfzR618bq2/s+TF5j5HhI59xhlaVij6E0dcvvvSXw89g0H2QpUu+kJ9/PvrCxdcE3WRy5RXMZC+6qaEukTrbkKir3meds9ZE6hb9W50/Ji/woo+VW17PmPGBqIcm6F7Ug1aqVjU3j3F0vFc1M9NTP2yImW8WomNXr3Pjg4ru+Us3Oadi2VgKf9/78KAiNZf7Y49387deztH6OsOGihUrpvW406a9l7Q8Nc1gqVIlk26Xygbjx02TrVt3pLJL3G3HvfZW3M+9fNjxuhZyzDFmnzykHsymc9FdXiqxzZ2j7xuMrt07SO1LqqRyeM/bqhuBBwx6zHM5sQUckkMydszR93n4lqCbTq689n6a7kVXiaXpCxRloJ48momhGl79Y0/YeO/XrY33qZ7P/IhfT6R6S1FTjplYrmxqJmmOF+s1Ha+I97Hnz95++33ZvlX/zDaeAwt4Aaeddqr85b7rAl4Ld+H/7Ynb3G2oeatChQrIHXd20lrqsqVfuyqvl+ZedDXV4/89N9LVsRNtpG5yVTe76l5uubW17iJDW94Xy9dqmylM3Qz9wIM3ZcTqoosrStNm+r8dXvTxF0fVJ2PzoB8ViYcPdCVXqhfdxPSIkapFknRd8UbKjf6tLjQiPdlqLnY/nkLqxwWBurgx9aAmP+KPbiNbXqvkc/68D42E066d3q/YcwrywgvPPjz2VQ1L0bmor9eHDn1L7rrH7DRbuW2IS8drm+lspvTLMjzERd082OSKzM03fVuv9vJqv9dk48ZN6RtF7bl2zbqod4lfqqT1+f8O05oQjxw+Se5/4EZnlppCiQ+cw5qBAyfksDa9VY0aX+b8u6P324J4kegekqK7vHgxx/ts0Scr4n2c1mdqSuCzyl2V1r627vT1V98cFZovCbrp3vOjapXmByqxNZ3Q+pGkR6ofnay3rB/5VP9vkxcckWhNDW1R5fsRf6QeNv0e4NwceuDA70ZCmjx5njPX7TwjZccrtHDh9P7DHa+s6M9Gj5pmPEHX/A225M3r2xej0VSuX3fr3tL1tkY3NDzE5Y67039Yio5658uXV27q0tYZw91PR3Gyc+eOwzdslilTPMfyjj02n9x++/XOA5ReznG7VFaqR8K/9OL4HB+YlKg81XO79LOjeycTbe/28x49s9xu6mk73UNSdJfntnKfLfnK7aa5crvvvvv+qHr7kqAHKblSyZrpJ3b6maSrFjc5tMaP3uegx3/UX50lH4wcbm4qwQGvjrGklt7C+Oabb+WjD7+UWrUreysoh71zUw96/YZ1fZnNJAfuP1cZ7EFXN7A1aFD9z2Nl6FXjRtWdBF3fwZctXS1lyiT/VuC2Xu3kpZdGae1FHzhgnPzlr9dL/vzHplShl/uMS2l7NxurOe3r16/mZlPP2+ju8dZdntsKLl++yu2muXI79Y2tupiMnsvdeFdLEJMrkzeMRs48laSrISimF9PfXvjR+2zqAk9dXPgRv+k2Tqf8he8udR6O8FM6u+a6fYYMNnchozB196DnOcb4P+tpnwPtsxqnva/2HQ32oFc5r6IzH3l+7SGnWmC1i8+VIkWKpLpbwu1Xrvg24broFSqJ7tFT7zcIO3bskL4vpTZUZdeuPTJt2jvRoWl53blrGy3luClEd4933rx6bzp1Uwe1zTcuh0i5LS+M2y1duiZbtYz/Sx7E5EoNDSlo5hvzbPiRseLZPtT8xpS/CtOP5NbkBZ4f00Jqbk5txQ0aOElbWWEv6M2pc2XPnr3Gqqm7B/3QAX+mD0wH5JJLnKtiWxaDPei161xoSy2lajV9M11s2LjFdb16987SenGgDvzyy6Nk/373w/IGO8P41PAYnUv+/PmlazdzT0iOjVV3j/fBg4diD+HL+507dvpynCAf5MefNmcL32iCHuTkynQvOkNDsp2Hcd+Y7v334wIpbsUy/OGOHbtl1qwFGY4iOIffu3evjB45MzgBWxqp6sktW7a0pdHpDatK5fJ6C/RQ2rkVy3nYO/uuO37dlf2DHN6pXvTut3TIYYvUV6mZWAYNcj/z1NAh+jsiWrZsImqWHBb3AuqbjIMGL4jdR2L3lr9uy34RYyxBJ7lKfCL4NbQi6L3nQY8/8RmQ2TUjhs8QlXSyuBcYNfJN9xuzZVyB8y+oFPfzMH5YqtSJ1lSrTOkS2mJJJUFXB73TuVFW5xAbVWbfPqOdm9uT9wK//fYnsm7derWL1uVOw7M6aQ3WksK2xySeloRlXRjbf/UpQQ/6nNVqNhdTS9CHhtD7b+rM8KfcMaNJNlOVXrZshaxc+W2qu7naXvcYdFtncalWtaIrD982MjgGvVRpexL00mVKaiPdsSu14SIFCx4nXbq113Z8VZCaTnXMqOTfaA3o94bW46rCLqx2nlTU+I2EmwB1j0HXXZ6bOuzY6f6bFzflhXWbHb/4kKCr3vMgz1ltuvff9Mmlbj411fusxub7cYFhKn5l70f8pts43fI//3y1rFzB3fTp+A3sb/Zm0XRiCtI+pU/JeXq+INUlWaylShZLtolv68ucrK8HfffOPSnHfedd1zhDQvTe1PVSn5xnidqwYavMmaN/GF/XLq1Trj87iOzYkfp5kxvdftmR/ULGyBCXoCdXQY/fZO9/WR+GVqoLJFOLH73/pmLXUe6gAfrHZOqIKwhlTJww09VX66nWRfdNogcP2nmT6AlFi6RKY3Z7g2Nid+36zWzsKZS+W2Ms6Xw7ox4udNNNbVOIOPmma9aslXfeWZxww1demZBwXborihUrJlnX+PcAtkicum8S1V1eJM6cfh93XOZnNMopPlvW7du3P1so2hP0oCdXYYjf1AWGH2PnTfb++xF/tr8uC99MnfK2hVEFIyQ1zduECfr9dA9xycRX2G5a8MTihd1s5t82Boe4bP55m3/1SHKkTZu3JtnC/epChdO7OfJeZ/7yggULuj+Qiy379R2fcKuxBobxZV3TVNRDmFhSFzjxRMsuzlOvQkb20J6gBzk5VC1gKn6Ghrg7v032/ufmoS1Kf6Rzc6h6GiBL+gLDhrqfQcLtUXT3oGeih8xNXU84wbL/SBvsQd+8cbsbEl+22bxJXyyFC6WXZKte9Otu0PsE2fnzPpStW4/+92zcuLmydYu+ixLVSHmdi7levfx5cqgvJ4XPBylWzLKLc5/rn+7htCboJnuf/UiuTMbP0JDkp6jyN3WBlNuHtij9kSOmJW8EtshR4OMPP5X16zfluE2qK3X3oKczDCHVmNPZvmTxE9LZzdw+BnvQf7aoB11nLEVOSH8s+X1/vdF5eNPx2trzwIHfnU6Ht44qb4iBZzxcWq+WnHpaqaOO5ccHur8R012eG4MiRdK7sHNTdpi2iU3IY9+nXdegJ1em4/fjAsNUcqtOCuJP+0/Dih3XrPlBPv30MytiCXoQAwdys2g6bZj/uNwzPGDRoi/SITKyz+LFX2ort7CHmz2LFy8i116ntxd94oS52eqmZlr65BP9/87demu7bMfhTeoCuqfbTD2C4O2hLUEPenJosun8SG5N9v770fsc9PhNnj86yh7IzaE6GA+X8fpr00XnMBLdQ1xsvUn0QIaeYJiw4Q0Ocfng/SUJD+vnit9+2ydLP9N3sXBa2ZM8hf/AQ51FPcBI1/LlFytl08Y/x/v3fel1XUUfKafMyWXkiqtqHXnv9wud/9ao2HWX59ajTBlv547b4wR5u9jb+7V0aQQ9uTLde276hDEdvx8XGKYu8Pwa+2+6jb2Ur/5Bfn38DC9FsG+UwKZNm2XGjA+kadM6UZ/yEoE/BdRc3WvX/ijly5/y54cZeDVz5kei84Kt6oXneKqF6kXv0PFqZ2jKRE/lRHY+JIdk8qQF0v3WVqIuRia9MSuyStvvG29qra2s3FxQ5cpnyapVazwTHJP3GFm2YpKUKlXMc1m2F6ClB91UcqXwgpwc+hW/yZOsRl2Tpf9RtskLPD/G/psX8naEyZPfFfWIbBZ9AsOG6HvYU24Zg35M3jz6GkBHSQbHoKvwxo2drSNKT2W8oXnWoQurnu0pHrXzX+/v5MyGom/avdlzPjwc09Ch02TPHr3zbave/u43X+25zl4K0D1mXHd5but2YTU9Dyo7cPCA9HtFzwWe29gztZ3nBN1kcsXQiuSnhene86yOyWPwsoXp+P24wPNSfz/2HTGcm0N1O8+d865s2fKL7mIpL0QCgwbpH26RCo/qwZ/25pxUdslx21NPO0UKFDgux23crDz55JLSPqupm01dbfPZ4uWHtxsy8A1X26eyUdOmDaRY8aKp7GL9tvv2Z59r26+Aa9SorO1QJqbR1BacxoI8JehhmLPaVO+/X3Num4pfnWN+JLfr1mo8m2OK8iP+mENa91Y9UW/BvPetiysMAQ0epK8XPQwe1CG7gPrW6vn/OI91ztDyzNNDtR65wjlnaivv/vtv1FbWNsdZTSG7du032sqMFNTr9g6Rl6H5vWnT1ozUpfYlVbQdVw0zfObpYdrKs7UgTwl60OesNtn770eDm4zfr28vdu8yI+VH/GYi11vq4IFT9BZIaUcExo7mm4kjGLyIK9DvlbGya5feYRdxDxTz4ddfrZc3Jk6P+dTb2wYNanorIGrvU08/SbKymkd94u3l3x5/yVsBcfauXLmiVLv43Dhrgv3Rhg1bMlaBWpdU13bsPi8Ol3XrNmorT1dBM976Y8iVjvLSvknU9NAEHZXLqQzT8fvRexv03vOgx5/T+WXLurFjzCSRpUqVlNZtm9hSzRzj+PKLtbLwvY9y3CadlevWrZeFC5dK3boXpLM7++QCgS1btki3Lv+QseOe9rW2nW96TPvx2rdvoLXMBx7uIuPHblaASQAAJPFJREFU6/n36Zdf9A8369y1ldb6pluY7qeXfrJoWbqheN6vVcv68tEHn3guRxWwb98+ubnrEzJrTl8t5eko5K9/6SNDBo+T3nd2lsce7+a5yLQTdFPJlV9DQ4I+tCIMveeez94EBdB7/gfMO+8sFjWbhIml43UttPwDZCK22DJ/+ulnuaBKm9iPtbwf4syJToKuhTK0haj7Ffq+PFF69mrrSx3vvuu/surr1VqPVbFSBTmp9IlayyxbtrS0bnOVM/OKfTNMqTm7u3RtobW+6RaWP7++G2pVDCtXrJLt23dKJp7u2S6roTz04HPpUhy135LFy6R7t6dkwKCHj1rn9wfXZD0ob8997/Bh+7wwVCpXLu/ca+HtojatIS4mk0M/ep5V/EEeWkHvf+I/Pb8u8BJHYM+aIYMmGwumS9fMzmyQSsXUTWk1a16Uyi6ut505a4Ezc8Re19v7sWGm5jlOVjfbpkFPFq/O9Y8/+l9ZMF//A3RiYxwzera2KQyjy77yqkuj32p7reZFt3Fp2+5Ka8I67jjvN+bGVubpp4bEfuTLezXNZq1aF2s9lrrAe/ihV7SWmUphPzhPlq5V/cYjyXlk37vueEqWfPpV5G1av9NK0E30nqv5qjv1SKsOKe9kIv5IEH5cYND7H9E++rcf00IefVT7PlE9JKrnzsRSo0Y1Od0ZQxqk5brrmxkJ97c9v8mwYW8ZKTvdQjM1jVqyeG2bZTFZvLrXt2vTWwYPmqq72CPlPf5If7nj9r8fea/zRcdrr9BZ3JGyzjrrVGneovGR97a8uL13li2hOPN9F9cey8jhk2T5MoMzNOQQcVZH/Rc//fuNlm6d/5HDUc2sevIfg6XOJZ3i3qC8d+9eueH6B0VN1JDuknKCbqL3XCXnY52haKan9FNIJuKP4PsxtILe/4j20b+Vvx/n0NFHtu+TEcOnO2P0zEyndUMnfTd3+SV3facrpZCHx5TnFOeYkXYl6Ify5BRt5tblyZvyf24yF6yhI99/37/lvntf1Fq6ugn1+o6PSN++I7SWGymsdp0acvbZp0Xeav/90MNdtZfppcA6Tn3LnZnZB0xFx1+6dInot1pe79+/T9q0vlPWrPlBS3mpFHLTTU3lzDPLpbKLq22nTJkljRr0EHWDtOll0sQFUrFCa3nhv0Nk9+7dCQ+nZpvpmPVAwvXJVqT0L6aJoRWR5DxZoLrWm+o992tohan4la8fvf9Bj1/XeWi6nDGj9Nx8FRunSnKvu0F/D0jscUy8v/KqeiaKlS+/XJmx3qh4FcpzKN6nmf/s0MGDmQ/CggiGDhkv51fJkjen/jFe1UtIA/tPlqrnd5BZs+Z7KSbHfXv0aJfjeq8rzzn3dLnKmW/clqXbLf7cK+C2vqedVtrtpiltp6YBvbLxrTJlivfzMKUDOxs/+dTtqe7iavuln38hdS+5TtR9GFu37nC1TyobqWcLtG93v/Pwqoed52C4mw3niy9WyI03PJ7KYY5sm1KCfmQvDS8iQ1pUz7lfi8necz+GVpiM36/ef1Nt7Uf8pmLXXa4a96bjkcrx4rqq6eXxPg7EZzd1MTdufuDASdYY0INuTVMkDGSDc/N2l5selBbN75Zx4+amNBWjekCWGipTp1ZnefCB55wb/sw9Jfi009QQlLoJ66FrxYPOjC42LGXKlJaWLc2Mt0+3ftUuqpjurkn3U7PfdOv8oHTs8JDMnvlx0u0jG6jpDdWQqlWrvo98lNLvK66qJeqbGVPLyOET5cLz2krvns/J6tXpxRiJ7Zdfdh2eZ7/pFb2dsebXyPx3Un+uyPS33pZ//XN4pEjXv/O53tLZUPWweu1FV4m5evy6H7210XXzGnd0WbGv/RpaYar3WbWJH+1hKn7VHn7EH9vutr4f0F//E/Uidb2xsx0zG0TiSeV3nTrnO2PnT5P16739gx3vmFMmzZHnX7gn3io+QyChgJpyTv30crZQNzJXr15FTnSeXFnMuZmuZIkT5Pf9B2XL1l9k27Yd8vPP2+SDhZ8d/sYmYYGaV3Tu0lpzifGLq1z5TGnS5HKZPdvcNwHxj5z90+uut+/ft9p1qmQP0sA7db+S+jnppFLSrHl9adSophxzzJ/9t/t/PyDffvuTk5B/d/gcXLPmj/Hrrdum/83Hv5+9Q+rV7WSgNn8U+dtvv8nYsZMP/1S96HypU7eaXH55NWnYMPFc7Dt27JYvln/j/I2tFTU974cffS5fObPe6Fiee3aAVHTO81atLnNdXEoJuio1kghFenPdJl0qCWzntEWmxgi7jdO1XNSGEZOoj7S/jHhrL9gpUF0wmV5Mxk/v+Z+tp2YUmTbtnT8/0PjqlFNPEZXkBnlp1/4Kef6/g7VXYceOHTJ65My0hv8c0jwk5dABO4eS/O78R96q5ZBdTh9/vFjUjy2L+nvv2cvs8Jbout7vzOgyZ/YCOeT8LxNLvnz55LZe7TNx6ByPqWahOuWUk+XHH3/KcTsdK9WYaTUES/24WQ4dSv9vulKlcnLPvd3kP/83yM2hPG3zmTMdo/rp2yf1XmxPB47Z+fbb/i4VKvR3pmA8M2ZN/Ld/XiLFX5/wU5WUqp8p8/74UTOwqEQp8qPeq5/Ier9uAo0XcNCTQxW/qQsM1V6mLzDGjw12/PHOKVs/GzN6Vo43rXiJu2PHpl52t2Lfbt1bSd48af+zl2MdRgx/M8f1rEQgSAIv9HlAjs1/rG8hX3jh2XJZ/Ut8O17sgRo3uSwjc4PHxhHvfb16NeN9HPjPHnjoJqlU6dzA18NtBVSvfla7e53x6+4erKXtv1SqZzyStKvf6n2mestjsUwlt+o4ppNbdYygx79ooaqFmcUPfzORmyl11EhzN3V0tuTBHV7kypQpLtVrVfNSRMJ9P/nkM/nuuw0J1ydakSdPojXpfW7rNIvWxWXoQi29VrNrr0aNL5P69c38neRU00ceuTmn1UbX9ehpX+95pMLNrq4TeRmq3+rfhKEj/i66H8ZkM9KmjZulg3OjqZtFW4Lu5mCZ2CYMveem3PwYGmK699+UTRDLVdNLqbvYTSxq6jH1VWsYluuvM/dNQP9XzY3/d2tvXSL8v8Bz+zzobtsv09sVKFBA/u//7spIGNUuqiB1L63l+7HLlz/T6icCN21aR4oXP9F3l2QHzCPeexfKlz9Fnv7XX5IdKlTrly79Qrp3fTJpnUKdoIdhaEXQe8+DHn/SvyCLNjB5c+i1hh70kwm+rA4NpWDBgkYOPe61tyTVJ3nqHoN+0NLpDA/Y9ihRy8agGzkhUyz0mGPyyeChT8mpGXwQ2UOPdE0xau+bd+7Wynshhkto2aqx4SOkXryu+wXU3Oj33X9L6gEEeI9Jk2bKc8+OzrEGoU7Qgz60gt7/xOeuH73/iY9u35oDBw7JhNdnGAlMJbPt2gV3esVYFDWutlmz9GcfiC0v+r2aW3jqVINjuqIPxmsENAv8+//uk8ZNzE1/5ybcmjUrS83aF7vZVMs26huDLganYNUSpFPIvffdEOqhIH+9v5N06dZBF1cgynn2X6/KrBkfJYw1tAl60IdW0Puf8JwVv6aFTByBfWsmvTFP1EwiJparr27s681iJuoQW2aXm1vGfqTt/fBhU1MqS/cY9LyWPrHzGNvGuDAGPdt52rNnJ7nxxmbZPsvUm0cf7e7bodu0u0qOPz6/b8dL90Dq/pmbb3Vu7rNo0THEJbo6/362t7Ruc1X0R6F+rb7t/OjjxMNSQ5ugB31ohcnefz/OeJO9/35MC+mHkc5jDB2aWlKYyrE7d7s6lc0Dsa3qpTv1NDOP835vwceyaeM21w4McXFNpXdDhrgc8ezYsZU88aQ9QwxqX1JFLr646pH4TL1QCeZtPe16cmhOdX344c6iHh5ly6JriEt0ffoPfEhu6XGd0zLex7dHl2vb6xNOOEFGjX5OHn0s8ZCuUCboJpNDP4ZWmO79Nz3zSdDjt+0POVk8P3y/WT58f1GyzdJar26eql69Ylr72r5Tx45megsPHPhdBg2c7Lr6unvQbb1J1Lq4NPegq4dgBXG59rpW0qevfTfpPfRIN+OcF118oVSsWM74cXQdIL8zPO+VVx/VVZyV5ah/J556+jbp++oToR3SU815cNKChcNEPVE1pyWUCbqp3nO/hlaYil+dCKaT85xONh3rgh6/DoPYMgamkAzG7pvsfdY14f26sXNXc98MjHvNzP0AydpLrbcuEf5f0LaNcHFjmco2t/XsKA8/0iuVXTK+7bXXt5YXX7IvOVcw9S6vKhdWO8+o0c23BKf3PAKhvl34+1OZmWUnEkPkt8le7vZZDWTm7AFSuvRJkcMF/vdxxx0n9z94m8ya09d5+FSJpPUJXYJusvfcj6EVJuMPQ+9/0jM6F27w+jhzyWDnLmZ6mW1oJjWms05dMw8A+f77H2TB/M8yUs1Dln4znMfSsfG6GunE4kXlrns6yoCBT0mhQs6jsy1f1FMcX+xzr9VR3n9/F2PxFS9RXFQSGMTlttvayd33mP+GIamN5m+hYo933vnl5f2Phkv79s1jVwXuff2GdZ3x5qPlL/dd5zr2UCXoYRhaEfTe86DH7/ovx5INZ8/8WDZs2GgkmnqXXyIlSxYzUrYthV53Q1NjoQwe5H6Yi84g8mTmSelJq3DI0ukfkwbucoNixQof3rJ123ry7vvDjff+ugzrqM3KnXmGzJ03VB50xjPbvjS5oqZUqVLJSJjXXW/uGzQjAccU+tAjneXpf2b42w8f7uMoWrSQvNL/AZnwRh/nWRxlYhTsf3vKqafI0OHPyPjXn0l5+tJQJegmm8qPoRVh6D031QZ+9P6bit1kuUMGTzFW/PUhmvs8EdI11zSWwoWLJFrt6fPZs+bLr7/u8lRGOjvTg56Omvd9Spb682L2dGce8TlzX5HHn7hDihYt6r1wTSV0v/VaWfTpSLnggrM0lWi+mI7Xm7mIvuXW1uaDN3yE7re2knETXpBixf489wwfMnvxhnvQow+mhjwt/WJ8YKZirF696uFv0z5f9po0b1E3uiquX4cmQTfde+5aNM0NTcfvxwWGqd5zlZz7EX+aTZex3bZu3SGzZ883cnz1D37b9vWNlG1boc2bm/mae9++/TJi+HTfq0sPuu/khw9Y3BniErvc3jtLFn8+Tm7q3D6jN7xlZTWXz5dPcnpce8aGaP37mdPf1x5j48b1QvNk5AYNLnK+sRnm3MxfVbtT0gJ96EGPjUFNxfjV6rek952dpUSJ5OO4Y/c3+V4NbVPDcRYsHCHTZ/UR9W2alyU0Cbqp5FDhBj059CN+k73/Xk7wMO87bOibxqp3dctGxsq2reCburYwFtLo0W8ZK5uC7RIoUeLoBF1FeMIJheS5/9wpX3415fANYiedVMqXwI8//nhp07apfPb5BGdGjAdc3ZTmS2ApHGT9+k3y3rsfprCHu02792jjbsOAbKXup1EJoRoGUruOPw+aOvbY/M69FgUyIlS8eBF57PFusnLVJOnz8uNyQdUqGYkjctBal1SXF/o8Kt+un3F4OE6lSuUiqzz9zudpb0t2Npkc+jG0wnTvuelmMh2/HxcYpo1MlD9mlLnkz+QMJyYsvJRZo0YlKVuurKz7dp2XYuLu+/XKVfLZZ6ukatUKcdfzYXgEkiUrKlFXN4ipn7lzPpHXx81xhsEsFPX0WZ1L3UtrScdrr3J+7Hs0fKr17Pvy+FR3Sbq9+ltv2LB60u2CuIEaBqJ+vl65Tp57bqTMmrlAdu3SO8zuvPMqyQ03Xi0drmkkRYoUzDiTOs/Vz5YtvzhPcX5Ppk6eLx99uFj27t1rLLYznPs4ate8UOo751HjRhdLsTjfnuk4eJ5DzqKjoEyW0bK+maP7NbTCVPxKZco8MzbRpXZ0brDerfffgCPF+xH/kYPxAgEEEPBZYPGnK+XttxfLBx98Lqu//kZ+/PGnlCKoXLmiVLu4ktSsed7hsa7qQiAsS4XyV8v27XovYB57vLczPKJDWIiS1mPevCUywxkmtPSzr2T16m9kWwoXhOphOmeceZpUq1pJLqlzgVxev1pgJg5QEygsWvSlLF+2Wr5a9U1aHTAFChRwvnk6Wc4663Q5/4IKcnF15++sVpXD34olhdewQeB70E32nmvwTVqEyfj96v03lZz7EX/SBmIDBBBAwKDARRdXFPUj8uf0a8uXrZVvv/1RNm3a5vQM/io7ftkpBQoeJ4WLFJKiJxSWooULysmnlBQ1J3ZYl1EjZmpPzo8vcLx0Njikzca2qO8k1eonelm16nvZ+NOWw+fXpp+3yc+bt4nqqi1RopiULHWCnFKmpDNs5GznBufgXuw1ubKmqJ/o5cMPvpANG7fI7p17nG8WfpOdu3Y7v/fIvt/2SxHn76r4iUWkePETpPTJxeWcc07P+MVIoHvQwzC0wlTvuXqo0thp0aemmdem4lfR0ntups0oFQEEELBdoFH9HrJ06Rdaw2zXvpn06/+g1jIpDAFTAoG+SXTdWlMs/twYarL3nIcqmTs3KBkBBBBAwJzAypXfak/OVbR33XOtuaApGQHNAoFN0FVyG+ShFWHo/Tc1c45fY/81/y1RHAIIIICABoHn/zNGQynZi7jggipSsWK57B/yDgGLBQKboJtKDlVb+TFrCL3/if8q/PBPfHTWIIAAAghkSkCNCZ46ZY72w3fp2lp7mRSIgEmBQCboJoeG+HFjIr3/iU9pP/wTH501CCCAAAKZFBg0YIrs27dPawjqwWvXhGDaSa0oFGa9QCATdFO9534NrTAVvzrb/Oh9Dnr81v9VEiACCCCQSwWGDZ2svebtO1wlxx4b+EnrtLtQoN0CgUvQTfae16hrvrFMxu9H73PQ4zffwhwBAQQQQCAdgXfeWSzr1q1PZ9eE++TNk1duvz33zHueEIIVgRMIVIKukkNTvbcquc3qaL79TMYf5N5zNS2kH/Gbb2GOgAACCCCQjkD/Vyaks1uO+9S9rKacelqpHLdhJQI2CgQqQTeV3KqG8SM5NNn77MfJZTJ+P6aF9MOIYyCAAAIIpC6wefN2eefthanvmGSP7re2SbIFqxGwUyAwCbrJ5NCvoSGmLjD8GDs/fqzZby/8uECy80+QqBBAAAEE+r78uhw4eEArRJmTy0jTpnW0lklhCPglEJgE3VRyq6D9SA6DHv8i/R0bR85xP/yPHIwXCCCAAAJWCRw4cEjGjn5Te0ydbmypvUwKRMAvgUAk6GHoPTfVoGHo/TdlQ7kIIIAAAvYLTHpjnvz88xatgebLl09uYXiLVlMK81fA+gQ9DEMrgt57HvT4/f2T4mgIIIAAAqkIDBrwRiqbu9q2adMGUqxYYVfbshECNgpYn6AHfWgFvf+JT3s/ev8TH501CCCAAAKZFli79kf5ZNFn2sO44+5rtZdJgQj4KWB1gq6SW1O9t34kh/T+Jz6V/bixNfHRWYMAAgggYIPAiy+MlUPO/3QuFStVkKpVK+gskrIQ8F3A6gTdVHKulP24MZHef9/PZw6IAAIIIBAQgd9+2ycTX5+hPdrOXZhaUTsqBfouYG2CHoahIaYuMPzo/Tf97YUfF0i+/zVxQAQQQAAB1wIjh0+XPXv2uN7ezYaFCxeRG29q6mZTtkHAagFrE3STya0fyaGp+NXZ5Ef869aaO2/9iN9c9JSMAAIIIKBDYMjQyTqKyVZG23ZXyLHH5sv2GW8QCKKAlQm6qd5zvx4nbyp+dYL51Xu+e5eZ09mP+M1ETqkIIIAAAroEPvtslXy9cpWu4g6Xk0fySK/eHbSWSWEIZErAugTd1NAKlRiOneYPs6nec78uMEzFr/TpPffnHOQoCCCAgM0CL/xntPbwatS+SMqXP0V7uRSIQCYErEvQTSCo5NyvxNBk73nZ8iZ0spdpMn56z7Nb8w4BBBDIjQLbt++UGTPmaa9695vbai+TAhHIlIBVA7VM9J536iGS1dEfXhPxRyL36yLDVO+5X/FHvPiNAAIIIGCnwKv9Jsrvv/+uNbiSJUtIqzaXaS2TwhDIpIBVCbpOCDUcxK8hLZG4g35jpcne8xp1I0r8RgABBBDIzQIjR0zVXv0bOrWSPHnyaC+XAhHIlIBVQ1zUMJQp87zdCKkSc9Vr7ndyrpLbIN9Yabr3369vMTL1h8RxEUAAAQSSC7w17QPZ8NOG5BumsEW+fPnklh7MfZ4CGZsGQMDKHvTIePFIj67qmY6X/KpkPLK06+TfUJbIMaN/mxoaoo4R8Yg+nu7XQY9ftwflIYAAAgjoFxjQf6L2Qhs1vkxKlSqmvVwKRCCTAlYm6BEQPxLTyLG8/I5cSHgpI9G+ftxYGfT4E9nxOQIIIICAPQI/fL9Z3n/vY+0B9ejRTnuZFIhApgWsGuKSaYx0j2+q99mvGytNxa88g3KRlW7bsx8CCCCAgDuBPn3GycFDB91t7HKrsmVPl0vrXehyazZDIDgCJOge28pk77PH0FztbjJ+P3r/XVWSjRBAAAEEMiqwf//vMmH8DO0xdOveXnuZFIiADQIk6B5aQSW3pnqf/eg9Hz822PF7aDp2RQABBBDwUWDc2Lmyfft2rUcsUKCAdO3WQmuZFIaALQIk6B5awlRyrkLyY2jIooUeKp9kVz/iTxICqxFAAAEELBEYPPgN7ZG0bnOFHH98fu3lUiACNgiQoKfZCkEfGmK69z9NVnZDAAEEEAiZwMqV38rSz7/QWqs8kkd63s7wFq2oFGaVAAl6ms0R9N7zoMefZrOxGwIIIICAzwIv/McZT6l5qXbRBVKxYjnNpVIcAvYIkKCn0RZh6D1Po9quduHGUFdMbIQAAgjkCoFdu/bIlCmztde1a/fW2sukQARsEshzyFlsCigIsbSsbyZKP24MVZGbil89OMrvJ7iaaQlKRQABBBDQIbB966+yaNFKHUVlK6PJlTWzvecNAmETsPpBRTZim+w99+PGSpPxly1vY4sREwIIIIBApgSKFS8qJNOZ0ue4QRZgiEsKrRf0GytNx+/HBUYKzcWmCCCAAAIIIIBAIAVI0FNotqDfWLlubQqVTXFTkvMUwdgcAQQQQAABBBBIIECCngAm9mOTQ0P8uLFSxb97V2yt9Lz3I349kVIKAggggAACCCBgvwAJuss2MtV77teNoUGP32UzsRkCCCCAAAIIIBB4ARJ0F01oqvfcr+TcVPxq1haGtrg4gdgEAQQQQAABBBBIQYAEPQnWeOf5CiZ6n/1KzlX1TMXPlIpJTh5WI4AAAggggAACaQiQoCdBW7QwyQZprPYzOTfRe+5n/GnwsgsCCCCAAAIIIBBoAeZBz6H5VHKrs/dZDQlp10kkq2MOB9W4Snf8KrROPfyLXyMFRSGAAAIIIIAAAoERIEH3qamC3usc9Ph9amYOgwACCCCAAAIIeBbIc8hZPJcS8gLS7Yn2u8c8UTN4jV+V61evf6I68DkCCCCAAAIIIJBbBEjQU2xpleyqJfLQn+i5xVVCrhY1jEUtNia1buIvW16kRl074/9Dlv9HAAEEEEAAAQTCK0CCHt62pWYIIIAAAggggAACARRgFpcANhohI4AAAggggAACCIRXgAQ9vG1LzRBAAAEEEEAAAQQCKECCHsBGI2QEEEAAAQQQQACB8AqQoIe3bakZAggggAACCCCAQAAFSNAD2GiEjAACCCCAAAIIIBBeARL08LYtNUMAAQQQQAABBBAIoAAJegAbjZARQAABBBBAAAEEwitAgh7etqVmCCCAAAIIIIAAAgEUIEEPYKMRMgIIIIAAAggggEB4BUjQw9u21AwBBBBAAAEEEEAggAIk6AFsNEJGAAEEEEAAAQQQCK8ACXp425aaIYAAAggggAACCARQgAQ9gI1GyAgggAACCCCAAALhFSBBD2/bUjMEEEAAAQQQQACBAAqQoAew0QgZAQQQQAABBBBAILwCJOjhbVtqhgACCCCAAAIIIBBAARL0ADYaISOAAAIIIIAAAgiEV4AEPbxtS80QQAABBBBAAAEEAihAgh7ARiNkBBBAAAEEEEAAgfAKkKCHt22pGQIIIIAAAggggEAABUjQA9hohIwAAggggAACCCAQXgES9PC2LTVDAAEEEEAAAQQQCKAACXoAG42QEUAAAQQQQAABBMIrQIIe3ralZggggAACCCCAAAIBFCBBD2CjETICCCCAAAIIIIBAeAVI0MPbttQMAQQQQAABBBBAIIACJOgBbDRCRgABBBBAAAEEEAivAAl6eNuWmiGAAAIIIIAAAggEUIAEPYCNRsgIIIAAAggggAAC4RUgQQ9v21IzBBBAAAEEEEAAgQAKkKAHsNEIGQEEEEAAAQQQQCC8AiTo4W1baoYAAggggAACCCAQQAES9AA2GiEjgAACCCCAAAIIhFeABD28bUvNEEAAAQQQQAABBAIoQIIewEYjZAQQQAABBBBAAIHwCpCgh7dtqRkCCCCAAAIIIIBAAAVI0APYaISMAAIIIIAAAgggEF4BEvTwti01QwABBBBAAAEEEAigAAl6ABuNkBFAAAEEEEAAAQTCK0CCHt62pWYIIIAAAggggAACARQgQQ9goxEyAggggAACCCCAQHgFSNDD27bUDAEEEEAAAQQQQCCAAiToAWw0QkYAAQQQQAABBBAIrwAJenjblpohgAACCCCAAAIIBFCABD2AjUbICCCAAAIIIIAAAuEVIEEPb9tSMwQQQAABBBBAAIEACpCgB7DRCBkBBBBAAAEEEEAgvAIk6OFtW2qGAAIIIIAAAgggEEABEvQANhohI4AAAggggAACCIRXgAQ9vG1LzRBAAAEEEEAAAQQCKECCHsBGI2QEEEAAAQQQQACB8AqQoIe3bakZAggggAACCCCAQAAFSNAD2GiEjAACCCCAAAIIIBBeARL08LYtNUMAAQQQQAABBBAIoAAJegAbjZARQAABBBBAAAEEwitAgh7etqVmCCCAAAIIIIAAAgEUIEEPYKMRMgIIIIAAAggggEB4BUjQw9u21AwBBBBAAAEEEEAggAIk6AFsNEJGAAEEEEAAAQQQCK8ACXp425aaIYAAAggggAACCARQgAQ9gI1GyAgggAACCCCAAALhFSBBD2/bUjMEEEAAAQQQQACBAAqQoAew0QgZAQQQQAABBBBAILwCJOjhbVtqhgACCCCAAAIIIBBAARL0ADYaISOAAAIIIIAAAgiEV4AEPbxtS80QQAABBBBAAAEEAihAgh7ARiNkBBBAAAEEEEAAgfAKkKCHt22pGQIIIIAAAggggEAABUjQA9hohIwAAggggAACCCAQXgES9PC2LTVDAAEEEEAAAQQQCKAACXoAG42QEUAAAQQQQAABBMIrQIIe3ralZggggAACCCCAAAIBFCBBD2CjETICCCCAAAIIIIBAeAVI0MPbttQMAQQQQAABBBBAIIACJOgBbDRCRgABBBBAAAEEEAivAAl6eNuWmiGAAAIIIIAAAggEUIAEPYCNRsgIIIAAAggggAAC4RUgQQ9v21IzBBBAAAEEEEAAgQAKkKAHsNEIGQEEEEAAAQQQQCC8AiTo4W1baoYAAggggAACCCAQQAES9AA2GiEjgAACCCCAAAIIhFeABD28bUvNEEAAAQQQQAABBAIoQIIewEYjZAQQQAABBBBAAIHwCpCgh7dtqRkCCCCAAAIIIIBAAAVI0APYaISMAAIIIIAAAgggEF4BEvTwti01QwABBBBAAAEEEAigAAl6ABuNkBFAAAEEEEAAAQTCK0CCHt62pWYIIIAAAggggAACARQgQQ9goxEyAggggAACCCCAQHgFSNDD27bUDAEEEEAAAQQQQCCAAiToAWw0QkYAAQQQQAABBBAIrwAJenjblpohgAACCCCAAAIIBFCABD2AjUbICCCAAAIIIIAAAuEVIEEPb9tSMwQQQAABBBBAAIEACpCgB7DRCBkBBBBAAAEEEEAgvAIk6OFtW2qGAAIIIIAAAgggEEABEvQANhohI4AAAggggAACCIRXgAQ9vG1LzRBAAAEEEEAAAQQCKECCHsBGI2QEEEAAAQQQQACB8AqQoIe3bakZAggggAACCCCAQAAFSNAD2GiEjAACCCCAAAIIIBBeARL08LYtNUMAAQQQQAABBBAIoAAJegAbjZARQAABBBBAAAEEwitAgh7etqVmCCCAAAIIIIAAAgEUIEEPYKMRMgIIIIAAAggggEB4BUjQw9u21AwBBBBAAAEEEEAggAIk6AFsNEJGAAEEEEAAAQQQCK8ACXp425aaIYAAAggggAACCARQgAQ9gI1GyAgggAACCCCAAALhFSBBD2/bUjMEEEAAAQQQQACBAAqQoAew0QgZAQQQQAABBBBAILwCJOjhbVtqhgACCCCAAAIIIBBAARL0ADYaISOAAAIIIIAAAgiEV4AEPbxtS80QQAABBBBAAAEEAihAgh7ARiNkBBBAAAEEEEAAgfAKkKCHt22pGQIIIIAAAggggEAABUjQA9hohIwAAggggAACCCAQXgES9PC2LTVDAAEEEEAAAQQQCKAACXoAG42QEUAAAQQQQAABBMIrQIIe3ralZggggAACCCCAAAIBFCBBD2CjETICCCCAAAIIIIBAeAVI0MPbttQMAQQQQAABBBBAIIACJOgBbDRCRgABBBBAAAEEEAivwP8DLvUbPhKgE3oAAAAASUVORK5CYII=;" vertex="1" parent="1">
          <mxGeometry x="190" y="783.4000000000001" width="128.27" height="80" as="geometry" />
        </mxCell>
        <mxCell id="7N5z4RHBk_GmlSCYDIpB-41" value="MSK" style="sketch=0;points=[[0,0,0],[0.25,0,0],[0.5,0,0],[0.75,0,0],[1,0,0],[0,1,0],[0.25,1,0],[0.5,1,0],[0.75,1,0],[1,1,0],[0,0.25,0],[0,0.5,0],[0,0.75,0],[1,0.25,0],[1,0.5,0],[1,0.75,0]];outlineConnect=0;fontColor=#232F3E;fillColor=#8C4FFF;strokeColor=#ffffff;dashed=0;verticalLabelPosition=bottom;verticalAlign=top;align=center;html=1;fontSize=12;fontStyle=0;aspect=fixed;shape=mxgraph.aws4.resourceIcon;resIcon=mxgraph.aws4.managed_streaming_for_kafka;" vertex="1" parent="1">
          <mxGeometry x="480" y="920" width="40" height="40" as="geometry" />
        </mxCell>
        <mxCell id="7N5z4RHBk_GmlSCYDIpB-44" value="clean room" style="sketch=0;points=[[0,0,0],[0.25,0,0],[0.5,0,0],[0.75,0,0],[1,0,0],[0,1,0],[0.25,1,0],[0.5,1,0],[0.75,1,0],[1,1,0],[0,0.25,0],[0,0.5,0],[0,0.75,0],[1,0.25,0],[1,0.5,0],[1,0.75,0]];outlineConnect=0;fontColor=#232F3E;fillColor=#8C4FFF;strokeColor=#ffffff;dashed=0;verticalLabelPosition=bottom;verticalAlign=top;align=center;html=1;fontSize=12;fontStyle=0;aspect=fixed;shape=mxgraph.aws4.resourceIcon;resIcon=mxgraph.aws4.clean_rooms;" vertex="1" parent="1">
          <mxGeometry x="400" y="920" width="40" height="40" as="geometry" />
        </mxCell>
        <mxCell id="7N5z4RHBk_GmlSCYDIpB-46" style="edgeStyle=orthogonalEdgeStyle;rounded=0;orthogonalLoop=1;jettySize=auto;html=1;exitX=1;exitY=0.5;exitDx=0;exitDy=0;entryX=0;entryY=0.5;entryDx=0;entryDy=0;entryPerimeter=0;curved=1;" edge="1" parent="1" source="7N5z4RHBk_GmlSCYDIpB-29" target="7N5z4RHBk_GmlSCYDIpB-44">
          <mxGeometry relative="1" as="geometry" />
        </mxCell>
        <mxCell id="7N5z4RHBk_GmlSCYDIpB-48" style="edgeStyle=orthogonalEdgeStyle;rounded=0;orthogonalLoop=1;jettySize=auto;html=1;entryX=0;entryY=0.5;entryDx=0;entryDy=0;entryPerimeter=0;" edge="1" parent="1" source="7N5z4RHBk_GmlSCYDIpB-44" target="7N5z4RHBk_GmlSCYDIpB-41">
          <mxGeometry relative="1" as="geometry" />
        </mxCell>
        <mxCell id="7N5z4RHBk_GmlSCYDIpB-49" style="edgeStyle=orthogonalEdgeStyle;rounded=0;orthogonalLoop=1;jettySize=auto;html=1;entryX=0;entryY=0.5;entryDx=0;entryDy=0;entryPerimeter=0;curved=1;" edge="1" parent="1" source="7N5z4RHBk_GmlSCYDIpB-14" target="7N5z4RHBk_GmlSCYDIpB-44">
          <mxGeometry relative="1" as="geometry" />
        </mxCell>
        <mxCell id="7N5z4RHBk_GmlSCYDIpB-52" style="edgeStyle=orthogonalEdgeStyle;rounded=0;orthogonalLoop=1;jettySize=auto;html=1;entryX=0;entryY=0.5;entryDx=0;entryDy=0;entryPerimeter=0;curved=1;" edge="1" parent="1" source="7N5z4RHBk_GmlSCYDIpB-31" target="7N5z4RHBk_GmlSCYDIpB-44">
          <mxGeometry relative="1" as="geometry" />
        </mxCell>
      </root>
    </mxGraphModel>
  </diagram>
</mxfile>
